<mxfile host="65bd71144e">
    <diagram id="5hPErwdiAdQB1zcDcoCg" name="Страница 1">
        <mxGraphModel dx="678" dy="562" grid="1" gridSize="10" guides="1" tooltips="1" connect="1" arrows="1" fold="1" page="1" pageScale="1" pageWidth="827" pageHeight="1169" background="#FFFFFF" math="0" shadow="0">
            <root>
                <mxCell id="0"/>
                <mxCell id="1" parent="0"/>
                <mxCell id="4" value="" style="edgeStyle=none;html=1;fontSize=15;fontColor=#000000;labelBackgroundColor=#FFFFFF;strokeColor=#000000;fillColor=#FFFFFF;" parent="1" source="2" target="3" edge="1">
                    <mxGeometry relative="1" as="geometry"/>
                </mxCell>
                <mxCell id="2" value="Начало" style="ellipse;whiteSpace=wrap;html=1;fontSize=15;fontColor=#000000;labelBackgroundColor=#FFFFFF;strokeColor=#000000;fillColor=#FFFFFF;" parent="1" vertex="1">
                    <mxGeometry x="289" y="20" width="120" height="60" as="geometry"/>
                </mxCell>
                <mxCell id="7" value="" style="edgeStyle=none;html=1;fontSize=12;fontColor=#000000;labelBackgroundColor=#FFFFFF;strokeColor=#000000;fillColor=#FFFFFF;" parent="1" source="3" target="5" edge="1">
                    <mxGeometry relative="1" as="geometry"/>
                </mxCell>
                <mxCell id="3" value="Ввод&lt;br style=&quot;font-size: 12px&quot;&gt;sourceStringArray[]" style="shape=parallelogram;perimeter=parallelogramPerimeter;whiteSpace=wrap;html=1;fixedSize=1;fontSize=12;fontColor=#000000;labelBackgroundColor=#FFFFFF;strokeColor=#000000;fillColor=#FFFFFF;" parent="1" vertex="1">
                    <mxGeometry x="279" y="110" width="140" height="60" as="geometry"/>
                </mxCell>
                <mxCell id="8" value="" style="edgeStyle=none;html=1;fontSize=12;fontColor=#000000;labelBackgroundColor=#FFFFFF;strokeColor=#000000;fillColor=#FFFFFF;" parent="1" source="5" target="6" edge="1">
                    <mxGeometry relative="1" as="geometry"/>
                </mxCell>
                <mxCell id="5" value="&lt;span style=&quot;font-size: 12px&quot;&gt;&lt;font&gt;lenghtResultArray = 0&lt;br&gt;sourceIndex = 0&lt;/font&gt;&lt;br&gt;&lt;/span&gt;" style="rounded=0;whiteSpace=wrap;html=1;fontSize=12;fontColor=#000000;labelBackgroundColor=#FFFFFF;strokeColor=#000000;fillColor=#FFFFFF;" parent="1" vertex="1">
                    <mxGeometry x="279" y="200" width="140" height="50" as="geometry"/>
                </mxCell>
                <mxCell id="10" value="" style="edgeStyle=none;html=1;fontSize=12;fontColor=#000000;labelBackgroundColor=#FFFFFF;strokeColor=#000000;fillColor=#FFFFFF;" parent="1" source="6" target="9" edge="1">
                    <mxGeometry relative="1" as="geometry"/>
                </mxCell>
                <mxCell id="11" value="Yes" style="edgeLabel;html=1;align=center;verticalAlign=middle;resizable=0;points=[];fontSize=12;fontColor=#000000;labelBackgroundColor=#FFFFFF;strokeColor=#000000;fillColor=#FFFFFF;" parent="10" vertex="1" connectable="0">
                    <mxGeometry x="-0.4101" y="2" relative="1" as="geometry">
                        <mxPoint x="8" y="-2" as="offset"/>
                    </mxGeometry>
                </mxCell>
                <mxCell id="6" value="sourceIndex &amp;lt; s&lt;span style=&quot;&quot;&gt;ourceStringArray.Lenght&lt;/span&gt;" style="rhombus;whiteSpace=wrap;html=1;labelBackgroundColor=#FFFFFF;fontSize=12;fontColor=#000000;strokeColor=#000000;fillColor=#FFFFFF;" parent="1" vertex="1">
                    <mxGeometry x="219" y="280" width="260" height="80" as="geometry"/>
                </mxCell>
                <mxCell id="9" value="&lt;span style=&quot;&quot;&gt;sourceStringArray[&lt;/span&gt;sourceIndex&lt;span style=&quot;&quot;&gt;].&lt;/span&gt;&lt;span style=&quot;&quot;&gt;Lenght &amp;lt;= 3&lt;/span&gt;" style="rhombus;whiteSpace=wrap;html=1;labelBackgroundColor=#FFFFFF;fontSize=12;fontColor=#000000;strokeColor=#000000;fillColor=#FFFFFF;" parent="1" vertex="1">
                    <mxGeometry x="210" y="400" width="280" height="80" as="geometry"/>
                </mxCell>
                <mxCell id="12" value="&lt;span style=&quot;font-size: 12px&quot;&gt;&lt;font&gt;lenghtResultArray = l&lt;/font&gt;&lt;/span&gt;&lt;span style=&quot;&quot;&gt;enghtResultArray + 1&lt;/span&gt;&lt;span style=&quot;font-size: 12px&quot;&gt;&lt;br&gt;&lt;/span&gt;" style="rounded=0;whiteSpace=wrap;html=1;fontSize=12;fontColor=#000000;labelBackgroundColor=#FFFFFF;strokeColor=#000000;fillColor=#FFFFFF;" parent="1" vertex="1">
                    <mxGeometry x="477" y="480" width="253" height="50" as="geometry"/>
                </mxCell>
                <mxCell id="34" value="" style="edgeStyle=none;html=1;fontSize=12;fontColor=#000000;labelBackgroundColor=#FFFFFF;strokeColor=#000000;fillColor=#FFFFFF;" parent="1" source="13" target="21" edge="1">
                    <mxGeometry relative="1" as="geometry"/>
                </mxCell>
                <mxCell id="13" value="&lt;span style=&quot;&quot;&gt;sourceIndex&amp;nbsp;&lt;/span&gt;&lt;span style=&quot;font-size: 12px&quot;&gt;&lt;font&gt;=&amp;nbsp;&lt;/font&gt;&lt;/span&gt;&lt;span style=&quot;&quot;&gt;sourceIndex&amp;nbsp;&lt;/span&gt;&lt;span style=&quot;&quot;&gt;+ 1&lt;/span&gt;&lt;span style=&quot;font-size: 12px&quot;&gt;&lt;br&gt;&lt;/span&gt;" style="rounded=0;whiteSpace=wrap;html=1;fontSize=12;fontColor=#000000;labelBackgroundColor=#FFFFFF;strokeColor=#000000;fillColor=#FFFFFF;" parent="1" vertex="1">
                    <mxGeometry x="260" y="590" width="180" height="60" as="geometry"/>
                </mxCell>
                <mxCell id="14" value="" style="endArrow=classic;html=1;fontSize=12;fontColor=#000000;exitX=0.5;exitY=1;exitDx=0;exitDy=0;entryX=0.5;entryY=0;entryDx=0;entryDy=0;labelBackgroundColor=#FFFFFF;strokeColor=#000000;fillColor=#FFFFFF;" parent="1" source="9" target="13" edge="1">
                    <mxGeometry width="50" height="50" relative="1" as="geometry">
                        <mxPoint x="210" y="640" as="sourcePoint"/>
                        <mxPoint x="260" y="590" as="targetPoint"/>
                    </mxGeometry>
                </mxCell>
                <mxCell id="18" value="No" style="edgeLabel;html=1;align=center;verticalAlign=middle;resizable=0;points=[];fontSize=12;fontColor=#000000;labelBackgroundColor=#FFFFFF;strokeColor=#000000;fillColor=#FFFFFF;" parent="14" vertex="1" connectable="0">
                    <mxGeometry x="-0.6975" relative="1" as="geometry">
                        <mxPoint x="10" y="-7" as="offset"/>
                    </mxGeometry>
                </mxCell>
                <mxCell id="15" value="" style="endArrow=classic;html=1;fontSize=12;fontColor=#000000;exitX=1;exitY=0.5;exitDx=0;exitDy=0;entryX=0.5;entryY=0;entryDx=0;entryDy=0;labelBackgroundColor=#FFFFFF;strokeColor=#000000;fillColor=#FFFFFF;" parent="1" source="9" target="12" edge="1">
                    <mxGeometry width="50" height="50" relative="1" as="geometry">
                        <mxPoint x="550" y="540" as="sourcePoint"/>
                        <mxPoint x="600" y="490" as="targetPoint"/>
                        <Array as="points">
                            <mxPoint x="604" y="440"/>
                        </Array>
                    </mxGeometry>
                </mxCell>
                <mxCell id="17" value="Yes" style="edgeLabel;html=1;align=center;verticalAlign=middle;resizable=0;points=[];fontSize=12;fontColor=#000000;labelBackgroundColor=#FFFFFF;strokeColor=#000000;fillColor=#FFFFFF;" parent="15" vertex="1" connectable="0">
                    <mxGeometry x="-0.7103" y="-2" relative="1" as="geometry">
                        <mxPoint y="-12" as="offset"/>
                    </mxGeometry>
                </mxCell>
                <mxCell id="16" value="" style="endArrow=classic;html=1;fontSize=12;fontColor=#000000;exitX=0.5;exitY=1;exitDx=0;exitDy=0;labelBackgroundColor=#FFFFFF;strokeColor=#000000;fillColor=#FFFFFF;" parent="1" source="12" edge="1">
                    <mxGeometry width="50" height="50" relative="1" as="geometry">
                        <mxPoint x="580" y="750" as="sourcePoint"/>
                        <mxPoint x="350" y="560" as="targetPoint"/>
                        <Array as="points">
                            <mxPoint x="604" y="560"/>
                        </Array>
                    </mxGeometry>
                </mxCell>
                <mxCell id="19" value="" style="endArrow=classic;html=1;fontSize=12;fontColor=#000000;exitX=0;exitY=0.5;exitDx=0;exitDy=0;entryX=0;entryY=0.5;entryDx=0;entryDy=0;labelBackgroundColor=#FFFFFF;strokeColor=#000000;fillColor=#FFFFFF;" parent="1" source="13" target="6" edge="1">
                    <mxGeometry width="50" height="50" relative="1" as="geometry">
                        <mxPoint x="170" y="730" as="sourcePoint"/>
                        <mxPoint x="220" y="680" as="targetPoint"/>
                        <Array as="points">
                            <mxPoint x="160" y="620"/>
                            <mxPoint x="160" y="320"/>
                        </Array>
                    </mxGeometry>
                </mxCell>
                <mxCell id="20" value="" style="edgeStyle=none;html=1;fontSize=12;fontColor=#000000;labelBackgroundColor=#FFFFFF;strokeColor=#000000;fillColor=#FFFFFF;" parent="1" source="21" target="24" edge="1">
                    <mxGeometry relative="1" as="geometry"/>
                </mxCell>
                <mxCell id="21" value="resultStringArray[&lt;span style=&quot;&quot;&gt;lenghtResultArray&lt;/span&gt;]&lt;span style=&quot;font-size: 12px&quot;&gt;&lt;font&gt;&lt;br&gt;sourceIndex = 0&lt;br&gt;&lt;/font&gt;&lt;/span&gt;&lt;span style=&quot;&quot;&gt;resultIndex = 0&lt;/span&gt;&lt;span style=&quot;font-size: 12px&quot;&gt;&lt;br&gt;&lt;/span&gt;" style="rounded=0;whiteSpace=wrap;html=1;fontSize=12;fontColor=#000000;labelBackgroundColor=#FFFFFF;strokeColor=#000000;fillColor=#FFFFFF;" parent="1" vertex="1">
                    <mxGeometry x="240" y="700" width="220" height="60" as="geometry"/>
                </mxCell>
                <mxCell id="22" value="Yes" style="edgeStyle=none;html=1;fontSize=12;fontColor=#000000;labelBackgroundColor=#FFFFFF;strokeColor=#000000;fillColor=#FFFFFF;" parent="1" source="24" target="25" edge="1">
                    <mxGeometry x="-0.5" y="10" relative="1" as="geometry">
                        <mxPoint as="offset"/>
                    </mxGeometry>
                </mxCell>
                <mxCell id="23" value="Yes" style="edgeLabel;html=1;align=center;verticalAlign=middle;resizable=0;points=[];fontSize=12;fontColor=#000000;labelBackgroundColor=#FFFFFF;strokeColor=#000000;fillColor=#FFFFFF;" parent="22" vertex="1" connectable="0">
                    <mxGeometry x="-0.4101" y="2" relative="1" as="geometry">
                        <mxPoint x="8" y="-49" as="offset"/>
                    </mxGeometry>
                </mxCell>
                <mxCell id="24" value="sourceIndex &amp;lt; s&lt;span style=&quot;&quot;&gt;ourceStringArray.Lenght&lt;/span&gt;" style="rhombus;whiteSpace=wrap;html=1;labelBackgroundColor=#FFFFFF;fontSize=12;fontColor=#000000;strokeColor=#000000;fillColor=#FFFFFF;" parent="1" vertex="1">
                    <mxGeometry x="220" y="790" width="260" height="80" as="geometry"/>
                </mxCell>
                <mxCell id="25" value="&lt;span style=&quot;&quot;&gt;sourceStringArray[&lt;/span&gt;sourceIndex&lt;span style=&quot;&quot;&gt;].&lt;/span&gt;&lt;span style=&quot;&quot;&gt;Lenght &amp;lt;= 3&lt;/span&gt;" style="rhombus;whiteSpace=wrap;html=1;labelBackgroundColor=#FFFFFF;fontSize=12;fontColor=#000000;strokeColor=#000000;fillColor=#FFFFFF;" parent="1" vertex="1">
                    <mxGeometry x="210" y="910" width="280" height="80" as="geometry"/>
                </mxCell>
                <mxCell id="26" value="resultStringArray[&lt;span style=&quot;&quot;&gt;resultIndex&lt;/span&gt;] = sourceStringArray[&lt;span style=&quot;&quot;&gt;sourceIndex&lt;/span&gt;]&lt;br&gt;&lt;span style=&quot;font-size: 12px&quot;&gt;&lt;br&gt;&lt;/span&gt;&lt;span style=&quot;&quot;&gt;resultIndex&amp;nbsp;&lt;/span&gt;&lt;font&gt;=&amp;nbsp;&lt;/font&gt;&lt;span style=&quot;&quot;&gt;resultIndex&amp;nbsp;&lt;/span&gt;&lt;span style=&quot;&quot;&gt;+ 1&lt;/span&gt;&lt;span style=&quot;font-size: 12px&quot;&gt;&lt;br&gt;&lt;/span&gt;" style="rounded=0;whiteSpace=wrap;html=1;fontSize=12;fontColor=#000000;labelBackgroundColor=#FFFFFF;strokeColor=#000000;fillColor=#FFFFFF;" parent="1" vertex="1">
                    <mxGeometry x="477" y="980" width="253" height="70" as="geometry"/>
                </mxCell>
                <mxCell id="27" value="&lt;span style=&quot;&quot;&gt;sourceIndex&amp;nbsp;&lt;/span&gt;&lt;span style=&quot;font-size: 12px&quot;&gt;&lt;font&gt;=&amp;nbsp;&lt;/font&gt;&lt;/span&gt;&lt;span style=&quot;&quot;&gt;sourceIndex&amp;nbsp;&lt;/span&gt;&lt;span style=&quot;&quot;&gt;+ 1&lt;/span&gt;&lt;span style=&quot;font-size: 12px&quot;&gt;&lt;br&gt;&lt;/span&gt;" style="rounded=0;whiteSpace=wrap;html=1;fontSize=12;fontColor=#000000;labelBackgroundColor=#FFFFFF;strokeColor=#000000;fillColor=#FFFFFF;" parent="1" vertex="1">
                    <mxGeometry x="259" y="1100" width="180" height="60" as="geometry"/>
                </mxCell>
                <mxCell id="28" value="" style="endArrow=classic;html=1;fontSize=12;fontColor=#000000;exitX=0.5;exitY=1;exitDx=0;exitDy=0;entryX=0.5;entryY=0;entryDx=0;entryDy=0;labelBackgroundColor=#FFFFFF;strokeColor=#000000;fillColor=#FFFFFF;" parent="1" source="25" target="27" edge="1">
                    <mxGeometry width="50" height="50" relative="1" as="geometry">
                        <mxPoint x="210" y="1240" as="sourcePoint"/>
                        <mxPoint x="260" y="1190" as="targetPoint"/>
                    </mxGeometry>
                </mxCell>
                <mxCell id="29" value="No" style="edgeLabel;html=1;align=center;verticalAlign=middle;resizable=0;points=[];fontSize=12;fontColor=#000000;labelBackgroundColor=#FFFFFF;strokeColor=#000000;fillColor=#FFFFFF;" parent="28" vertex="1" connectable="0">
                    <mxGeometry x="-0.6975" relative="1" as="geometry">
                        <mxPoint x="10" y="-7" as="offset"/>
                    </mxGeometry>
                </mxCell>
                <mxCell id="30" value="" style="endArrow=classic;html=1;fontSize=12;fontColor=#000000;exitX=1;exitY=0.5;exitDx=0;exitDy=0;entryX=0.5;entryY=0;entryDx=0;entryDy=0;labelBackgroundColor=#FFFFFF;strokeColor=#000000;fillColor=#FFFFFF;" parent="1" source="25" target="26" edge="1">
                    <mxGeometry width="50" height="50" relative="1" as="geometry">
                        <mxPoint x="550" y="1140" as="sourcePoint"/>
                        <mxPoint x="600" y="1090" as="targetPoint"/>
                        <Array as="points">
                            <mxPoint x="604" y="950"/>
                        </Array>
                    </mxGeometry>
                </mxCell>
                <mxCell id="31" value="Yes" style="edgeLabel;html=1;align=center;verticalAlign=middle;resizable=0;points=[];fontSize=12;fontColor=#000000;labelBackgroundColor=#FFFFFF;strokeColor=#000000;fillColor=#FFFFFF;" parent="30" vertex="1" connectable="0">
                    <mxGeometry x="-0.7103" y="-2" relative="1" as="geometry">
                        <mxPoint y="-12" as="offset"/>
                    </mxGeometry>
                </mxCell>
                <mxCell id="32" value="" style="endArrow=classic;html=1;fontSize=12;fontColor=#000000;exitX=0.5;exitY=1;exitDx=0;exitDy=0;labelBackgroundColor=#FFFFFF;strokeColor=#000000;fillColor=#FFFFFF;" parent="1" source="26" edge="1">
                    <mxGeometry width="50" height="50" relative="1" as="geometry">
                        <mxPoint x="580" y="1350" as="sourcePoint"/>
                        <mxPoint x="350" y="1070" as="targetPoint"/>
                        <Array as="points">
                            <mxPoint x="604" y="1070"/>
                        </Array>
                    </mxGeometry>
                </mxCell>
                <mxCell id="33" value="" style="endArrow=classic;html=1;fontSize=12;fontColor=#000000;exitX=0;exitY=0.5;exitDx=0;exitDy=0;entryX=0;entryY=0.5;entryDx=0;entryDy=0;labelBackgroundColor=#FFFFFF;strokeColor=#000000;fillColor=#FFFFFF;" parent="1" source="27" target="24" edge="1">
                    <mxGeometry width="50" height="50" relative="1" as="geometry">
                        <mxPoint x="170" y="1330" as="sourcePoint"/>
                        <mxPoint x="220" y="1280" as="targetPoint"/>
                        <Array as="points">
                            <mxPoint x="160" y="1130"/>
                            <mxPoint x="160" y="830"/>
                        </Array>
                    </mxGeometry>
                </mxCell>
                <mxCell id="35" value="" style="endArrow=classic;html=1;fontSize=12;fontColor=#000000;exitX=1;exitY=0.5;exitDx=0;exitDy=0;labelBackgroundColor=#FFFFFF;strokeColor=#000000;fillColor=#FFFFFF;" parent="1" source="6" edge="1">
                    <mxGeometry width="50" height="50" relative="1" as="geometry">
                        <mxPoint x="-10" y="710" as="sourcePoint"/>
                        <mxPoint x="350" y="670" as="targetPoint"/>
                        <Array as="points">
                            <mxPoint x="750" y="320"/>
                            <mxPoint x="750" y="670"/>
                        </Array>
                    </mxGeometry>
                </mxCell>
                <mxCell id="36" value="No" style="edgeLabel;html=1;align=center;verticalAlign=middle;resizable=0;points=[];fontSize=12;fontColor=#000000;labelBackgroundColor=#FFFFFF;strokeColor=#000000;fillColor=#FFFFFF;" parent="35" vertex="1" connectable="0">
                    <mxGeometry x="-0.9397" y="-2" relative="1" as="geometry">
                        <mxPoint x="-19" y="-12" as="offset"/>
                    </mxGeometry>
                </mxCell>
                <mxCell id="37" value="Вывод&lt;br style=&quot;font-size: 12px&quot;&gt;resultStringArray[]" style="shape=parallelogram;perimeter=parallelogramPerimeter;whiteSpace=wrap;html=1;fixedSize=1;fontSize=12;fontColor=#000000;labelBackgroundColor=#FFFFFF;strokeColor=#000000;fillColor=#FFFFFF;" parent="1" vertex="1">
                    <mxGeometry x="533.5" y="800" width="140" height="60" as="geometry"/>
                </mxCell>
                <mxCell id="41" value="" style="endArrow=classic;html=1;fontSize=12;fontColor=#000000;exitX=1;exitY=0.5;exitDx=0;exitDy=0;entryX=0;entryY=0.5;entryDx=0;entryDy=0;labelBackgroundColor=#FFFFFF;strokeColor=#000000;fillColor=#FFFFFF;" parent="1" source="24" target="37" edge="1">
                    <mxGeometry width="50" height="50" relative="1" as="geometry">
                        <mxPoint x="480" y="900" as="sourcePoint"/>
                        <mxPoint x="530" y="850" as="targetPoint"/>
                    </mxGeometry>
                </mxCell>
                <mxCell id="42" value="No" style="edgeLabel;html=1;align=center;verticalAlign=middle;resizable=0;points=[];fontSize=12;fontColor=#000000;labelBackgroundColor=#FFFFFF;strokeColor=#000000;fillColor=#FFFFFF;" parent="41" vertex="1" connectable="0">
                    <mxGeometry x="-0.5433" y="-1" relative="1" as="geometry">
                        <mxPoint x="-4" y="-11" as="offset"/>
                    </mxGeometry>
                </mxCell>
                <mxCell id="43" value="Конец" style="ellipse;whiteSpace=wrap;html=1;fontSize=15;fontColor=#000000;labelBackgroundColor=#FFFFFF;strokeColor=#000000;fillColor=#FFFFFF;" parent="1" vertex="1">
                    <mxGeometry x="690" y="800" width="120" height="60" as="geometry"/>
                </mxCell>
                <mxCell id="44" value="" style="endArrow=classic;html=1;fontSize=12;fontColor=#000000;exitX=1;exitY=0.5;exitDx=0;exitDy=0;entryX=0;entryY=0.5;entryDx=0;entryDy=0;labelBackgroundColor=#FFFFFF;strokeColor=#000000;fillColor=#FFFFFF;" parent="1" source="37" target="43" edge="1">
                    <mxGeometry width="50" height="50" relative="1" as="geometry">
                        <mxPoint x="690" y="940" as="sourcePoint"/>
                        <mxPoint x="740" y="890" as="targetPoint"/>
                    </mxGeometry>
                </mxCell>
            </root>
        </mxGraphModel>
    </diagram>
</mxfile>